#!OML:ASF I:\golf\golf\golf 2\Subject 1\2002-09-07\Subject1.ASF
:FULLY-SPECIFIED
:DEGREES
460
root 0.937839 17.7823 -3.40881 14.7838 -3.57532 -3.85782
lowerback 11.5692 2.41911 -6.87344
upperback 4.64459 2.5558 3.80413
thorax -2.06043 1.19758 7.57205
lowerneck -19.9323 -5.02376 -3.81708
upperneck 8.47408 -6.50664 5.59123
head 6.09633 -2.83134 1.69161
rclavicle 1.80894e-014 3.37934e-015
rhumerus -17.6814 16.2726 -84.152
rradius 42.2686
rwrist -17.9024
rhand -24.3129 12.8405
rfingers 7.12502
rthumb 2.17515 -17.1282
lclavicle 1.80894e-014 3.37934e-015
lhumerus -20.3035 -29.9832 96.3477
lradius 45.6106
lwrist 20.6073
lhand -14.9553 30.8183
lfingers 7.12502
lthumb 11.2078 60.4989
rfemur -19.77 -9.15329 19.5581
rtibia 44.4297
rfoot -13.305 -7.56384
rtoes -5.33892
lfemur -39.192 5.61853 -15.4582
ltibia 35.192
lfoot -5.91921 -5.99219
ltoes -11.1875
461
root 0.893116 17.8088 -3.42628 14.8927 -3.52913 -3.86957
lowerback 10.6832 2.28391 -6.852
upperback 4.34574 2.43302 3.80068
thorax -1.86857 1.14062 7.58885
lowerneck -20.1475 -5.03561 -3.77544
upperneck 8.54398 -6.53901 5.65605
head 6.15579 -2.83487 1.69787
rclavicle -3.72721e-014 1.07344e-014
rhumerus -18.2485 15.8715 -84.2255
rradius 42.127
rwrist -17.8168
rhand -24.2611 12.4818
rfingers 7.12502
rthumb 2.2252 -17.4863
lclavicle -3.72721e-014 1.07344e-014
lhumerus -20.3838 -29.2761 96.1184
lradius 45.1801
lwrist 19.7155
lhand -11.7046 33.9281
lfingers 7.12502
lthumb 14.3416 63.4128
rfemur -19 -8.28423 19.6384
rtibia 42.9363
rfoot -13.6681 -7.50015
rtoes -7.86193
lfemur -39.0151 5.55583 -15.2596
ltibia 34.6117
lfoot -5.69572 -5.94278
ltoes -11.6895
462
root 0.84856 17.8193 -3.44662 14.8316 -3.55094 -3.80115
lowerback 10.0177 2.20642 -6.82364
upperback 4.06699 2.37052 3.70894
thorax -1.78138 1.11715 7.49226
lowerneck -20.2763 -5.10483 -3.76407
upperneck 8.60245 -6.65665 5.81626
head 6.20689 -2.87428 1.731
rclavicle 5.56597e-015 -3.77691e-015
rhumerus -18.794 15.3576 -84.3581
rradius 41.889
rwrist -17.7793
rhand -24.2265 12.5174
rfingers 7.12502
rthumb 2.25859 -17.4504
lclavicle 5.56597e-015 -3.77691e-015
lhumerus -20.4832 -28.6773 95.8386
lradius 44.7367
lwrist 18.8277
lhand -15.1483 31.3776
lfingers 7.12502
lthumb 11.0217 61.0682
rfemur -18.0836 -7.39791 19.5938
rtibia 41.4162
rfoot -14.194 -7.53426
rtoes -9.73107
lfemur -38.6986 5.45754 -15.1238
ltibia 34.0854
lfoot -5.48329 -5.84549
ltoes -11.6521
463
root 0.802251 17.8297 -3.47244 14.5664 -3.65922 -3.6668
lowerback 9.63697 2.17263 -6.91196
upperback 3.83288 2.3377 3.60949
thorax -1.81126 1.1106 7.44555
lowerneck -20.4317 -5.16607 -3.82073
upperneck 8.75976 -6.75251 5.99248
head 6.29624 -2.90174 1.78131
rclavicle 9.74045e-015 -1.39149e-015
rhumerus -19.3146 14.8048 -84.4687
rradius 41.6332
rwrist -17.642
rhand -24.0675 12.6523
rfingers 7.12502
rthumb 2.41217 -17.3139
lclavicle 9.74045e-015 -1.39149e-015
lhumerus -20.5979 -27.7605 95.4836
lradius 44.3207
lwrist 17.6623
lhand -15.8782 31.0329
lfingers 7.12502
lthumb 10.3176 60.7598
rfemur -16.9819 -6.43558 19.4584
rtibia 39.8545
rfoot -14.7281 -7.66049
rtoes -10.022
lfemur -38.1702 5.40634 -15.0493
ltibia 33.5762
lfoot -5.31466 -5.73266
ltoes -11.3409
464
root 0.752781 17.8435 -3.50116 14.1962 -3.75294 -3.55932
lowerback 9.35372 2.13258 -7.05012
upperback 3.68708 2.28883 3.57682
thorax -1.80263 1.09087 7.50078
lowerneck -20.7468 -5.17894 -3.85122
upperneck 8.99573 -6.77164 6.04356
head 6.42671 -2.89721 1.79322
rclavicle 1.27222e-014 -1.25234e-014
rhumerus -19.7644 14.3842 -84.4928
rradius 41.4007
rwrist -17.5313
rhand -23.9714 12.8104
rfingers 7.12502
rthumb 2.50501 -17.1546
lclavicle 1.27222e-014 -1.25234e-014
lhumerus -20.6211 -26.7238 95.0942
lradius 44.0192
lwrist 16.7017
lhand -15.3034 31.5823
lfingers 7.12502
lthumb 10.8721 61.2808
rfemur -15.8029 -5.50033 19.4071
rtibia 38.3583
rfoot -15.0986 -8.0096
rtoes -10.8125
lfemur -37.5373 5.36187 -14.9274
ltibia 33.127
lfoot -5.2112 -5.62348
ltoes -11.8105
465
root 0.704305 17.8549 -3.53259 13.8147 -3.84107 -3.49403
lowerback 9.06187 2.08298 -7.10454
upperback 3.59427 2.23582 3.54284
thorax -1.72985 1.06484 7.5072
lowerneck -21.0251 -5.17879 -3.83851
upperneck 9.06505 -6.77857 6.10245
head 6.49582 -2.88801 1.80429
rclavicle -1.78906e-015 1.19271e-014
rhumerus -20.1256 14.0736 -84.5268
rradius 41.1735
rwrist -17.5728
rhand -24.0719 13.0001
rfingers 7.12502
rthumb 2.40787 -16.9661
lclavicle -1.78906e-015 1.19271e-014
lhumerus -20.4817 -25.7492 94.6323
lradius 43.7039
lwrist 16.0064
lhand -14.0685 32.6415
lfingers 7.12502
lthumb 12.0631 62.2738
rfemur -14.6481 -4.69719 19.4532
rtibia 36.9264
rfoot -15.1801 -8.48206
rtoes -12.8508
lfemur -36.9001 5.35198 -14.7725
ltibia 32.6585
lfoot -5.04218 -5.5627
ltoes -12.6085
466
root 0.661194 17.8655 -3.56149 13.4219 -4.08033 -3.37226
lowerback 8.76568 2.08694 -7.17412
upperback 3.46006 2.25153 3.45702
thorax -1.70906 1.07684 7.45785
lowerneck -21.0899 -5.16986 -3.81689
upperneck 9.05029 -6.78272 6.1908
head 6.50467 -2.88013 1.82801
rclavicle -1.50082e-014 -2.18663e-014
rhumerus -20.5779 13.7133 -84.5717
rradius 40.9547
rwrist -17.4663
rhand -24.1231 12.965
rfingers 7.12502
rthumb 2.35842 -17.0018
lclavicle -1.50082e-014 -2.18663e-014
lhumerus -20.504 -24.728 94.1923
lradius 43.4532
lwrist 15.3339
lhand -11.6595 34.4074
lfingers 7.12502
lthumb 14.3851 63.8889
rfemur -13.5525 -3.9842 19.4043
rtibia 35.6023
rfoot -15.236 -8.75581
rtoes -14.0237
lfemur -36.2256 5.26448 -14.6619
ltibia 32.1774
lfoot -4.84003 -5.31139
ltoes -13.3073
467
root 0.619626 17.8762 -3.59179 13.0723 -4.39279 -3.25151
lowerback 8.4465 2.1434 -7.23894
upperback 3.2876 2.33902 3.37223
thorax -1.7284 1.12784 7.39896
lowerneck -21.0309 -5.18514 -3.77593
upperneck 9.00424 -6.81544 6.20444
head 6.48129 -2.89494 1.82324
rclavicle -4.77083e-015 1.64991e-014
rhumerus -21.1215 13.335 -84.5724
rradius 40.7525
rwrist -17.2091
rhand -24.2252 12.7925
rfingers 7.12502
rthumb 2.25989 -17.1753
lclavicle -4.77083e-015 1.64991e-014
lhumerus -20.7275 -23.76 93.8577
lradius 43.3643
lwrist 14.9379
lhand -9.34632 35.6495
lfingers 7.12502
lthumb 16.6131 64.9585
rfemur -12.5855 -3.33254 19.3666
rtibia 34.3739
rfoot -15.3864 -8.98269
rtoes -13.835
lfemur -35.5867 5.09735 -14.5239
ltibia 31.6867
lfoot -4.63657 -4.91825
ltoes -13.5666
468
root 0.572954 17.8807 -3.63537 12.8675 -4.55676 -3.2364
lowerback 8.14008 2.13664 -7.18764
upperback 3.07543 2.35186 3.33687
thorax -1.78052 1.1446 7.33403
lowerneck -21.0434 -5.2123 -3.7351
upperneck 8.9936 -6.85394 6.15182
head 6.47809 -2.91634 1.79496
rclavicle 7.05686e-015 1.23246e-014
rhumerus -21.5726 12.9597 -84.5835
rradius 40.5128
rwrist -17.0081
rhand -24.3182 12.7632
rfingers 7.12502
rthumb 2.17 -17.2055
lclavicle 7.05686e-015 1.23246e-014
lhumerus -20.8975 -22.6985 93.5117
lradius 43.1962
lwrist 14.6155
lhand -8.9925 35.6131
lfingers 7.12502
lthumb 16.9537 64.8932
rfemur -11.8545 -2.82297 19.5631
rtibia 33.2064
rfoot -15.5783 -9.40693
rtoes -13.365
lfemur -35.1914 5.07554 -14.3042
ltibia 31.1944
lfoot -4.31658 -4.78257
ltoes -13.3871
